# Blender v2.78 (sub 0) OBJ File: ''
# www.blender.org
mtllib grass3.mtl
o Plane001
v -0.011070 -0.005829 -0.000294
v -0.000084 -0.005829 -0.009268
v -0.000084 0.202639 0.003555
v -0.041917 0.191021 0.017960
v 0.011745 -0.005829 -0.002752
v 0.041749 0.191021 0.017960
v -0.027875 0.387871 0.068620
v -0.000084 0.392727 0.061102
v -0.000084 0.510614 0.139942
v 0.027707 0.387871 0.068620
vt 0.8370 0.0123
vt 0.8759 0.0468
vt 0.5447 0.4201
vt 0.4152 0.2680
vt 0.9177 0.0840
vt 0.7112 0.5306
vt 0.1521 0.6645
vt 0.2428 0.7604
vt 0.0555 0.9715
vt 0.3488 0.8390
vn 0.3384 -0.0526 0.9395
vn 0.0707 -0.0462 0.9964
vn 0.0032 -0.1732 0.9849
vn 0.1904 -0.1526 0.9698
vn -0.2685 -0.0205 0.9631
vn -0.1953 -0.1628 0.9671
vn 0.1657 -0.3947 0.9037
vn 0.0000 -0.4292 0.9032
vn 0.0000 -0.5559 0.8312
vn -0.1657 -0.3947 0.9037
usemtl Material__25
s 1
f 1/1/1 2/2/2 3/3/3 4/4/4
f 2/2/2 5/5/5 6/6/6 3/3/3
f 7/7/7 8/8/8 9/9/9
f 9/9/9 8/8/8 10/10/10
f 7/7/7 4/4/4 3/3/3 8/8/8
f 3/3/3 6/6/6 10/10/10 8/8/8
