# Blender v2.78 (sub 0) OBJ File: ''
# www.blender.org
mtllib text_cube2.mtl
o Cube
v -1.000000 -1.000000 1.000000
v -1.000000 -1.000000 1.000000
v -1.000000 1.000000 1.000000
v -1.000000 -1.000000 -1.000000
v -1.000000 1.000000 -1.000000
v 1.000000 -1.000000 1.000000
v 1.000000 1.000000 1.000000
v 1.000000 -1.000000 -1.000000
v 1.000000 1.000000 -1.000000
vt 0.8829 0.9040
vt 0.6149 0.9040
vt 0.6149 0.6360
vt 0.8829 0.6360
vt 0.4109 0.4471
vt 0.1179 0.4471
vt 0.1179 0.1540
vt 0.4109 0.1540
vt 0.0000 0.0000
vt 0.0000 0.0000
vt 0.0000 0.0000
vt 0.0000 0.0000
vt 0.0000 0.0000
vt 0.0000 0.0000
vt 0.0000 0.0000
vt 0.0000 0.0000
vn 0.0000 -1.0000 0.0000
vn 0.0000 1.0000 0.0000
vn -1.0000 0.0000 0.0000
vn 0.0000 0.0000 -1.0000
vn 1.0000 0.0000 0.0000
vn 0.0000 0.0000 1.0000
usemtl Material
s off
f 4/1/1 8/2/1 6/3/1 2/4/1
f 9/5/2 5/6/2 3/7/2 7/8/2
usemtl Material_NONE
f 2/9/3 3/10/3 5/11/3 4/12/3
f 4/12/4 5/11/4 9/13/4 8/14/4
f 8/14/5 9/13/5 7/15/5 6/16/5
f 6/16/6 7/15/6 3/10/6 2/9/6
