# Blender v2.78 (sub 0) OBJ File: ''
# www.blender.org
mtllib tombstone.mtl
o Cube_Cube.001
v -0.307624 0.807904 0.053734
v -0.307624 0.807904 -0.031160
v -0.307624 0.035353 -0.031160
v -0.307624 0.035353 0.053734
v -0.231823 0.897888 -0.031160
v -0.156022 0.948959 -0.031160
v -0.080220 0.975210 -0.031160
v -0.004419 0.981761 -0.031160
v 0.071382 0.969989 -0.031160
v 0.147183 0.944085 -0.031160
v 0.222984 0.898202 -0.031160
v 0.298786 0.807904 -0.031160
v 0.298786 0.035353 -0.031160
v 0.298786 0.807904 0.053734
v 0.298786 0.035353 0.053734
v 0.222984 0.898202 0.053734
v 0.147183 0.944085 0.053734
v 0.071382 0.969989 0.053734
v -0.004419 0.981761 0.053734
v -0.080220 0.975210 0.053734
v -0.156022 0.948959 0.053734
v -0.231823 0.897888 0.053734
vt 0.9097 0.8087
vt 0.7059 0.0488
vt 0.7198 0.8087
vt 0.2719 0.9494
vt 0.0735 0.8110
vt 0.9103 0.8220
vt 0.8909 0.7787
vt 0.7115 0.0513
vt 0.7115 0.7787
vt 0.6456 0.9649
vt 0.0735 0.8112
vt 0.7469 0.9351
vt 0.7524 0.1223
vt 0.2553 0.0503
vt 0.7551 0.0526
vt 0.5919 0.7400
vt 0.4979 0.8126
vt 0.5001 0.7400
vt 0.2887 0.8126
vt 0.1796 0.7400
vt 0.2909 0.7400
vt 0.4025 0.7400
vt 0.4003 0.8126
vt 0.1774 0.8126
vt 0.0798 0.7400
vt 0.8095 0.8126
vt 0.6947 0.7400
vt 0.8117 0.7400
vt 0.6925 0.8126
vt 0.9139 0.7400
vt 0.9117 0.8126
vt 0.8958 0.0488
vt 0.9048 0.0500
vt 0.0801 0.0500
vt 0.8264 0.8942
vt 0.7509 0.9347
vt 0.4348 0.9808
vt 0.6460 0.9644
vt 0.5025 0.9853
vt 0.1815 0.8985
vt 0.8909 0.0513
vt 0.9041 0.0501
vt 0.9111 0.8237
vt 0.0804 0.0501
vt 0.8272 0.8941
vt 0.5027 0.9849
vt 0.2759 0.9527
vt 0.4362 0.9805
vt 0.1816 0.8988
vt 0.2526 0.1201
vt 0.5897 0.8126
vt 0.0776 0.8126
vn -1.0000 -0.0000 0.0000
vn 0.0000 0.0000 -1.0000
vn 1.0000 -0.0000 0.0000
vn -0.0000 -0.0000 1.0000
vn 0.0000 -1.0000 -0.0000
vn 0.1535 0.9882 0.0000
vn -0.5588 0.8293 0.0000
vn -0.3272 0.9449 0.0000
vn -0.0861 0.9963 0.0000
vn -0.7648 0.6443 0.0000
vn 0.5178 0.8555 0.0000
vn 0.3234 0.9463 0.0000
vn 0.7659 0.6430 0.0000
usemtl None
s 1
f 2/1/1 4/2/1 1/3/1
f 10/4/2 12/5/2 2/6/2
f 14/7/3 13/8/3 12/9/3
f 18/10/4 1/11/4 17/12/4
f 3/13/5 15/14/5 4/15/5
f 18/16/6 8/17/6 19/18/6
f 6/19/7 22/20/7 21/21/7
f 6/19/8 20/22/8 7/23/8
f 8/17/9 20/22/9 19/18/9
f 5/24/10 1/25/10 22/20/10
f 11/26/11 17/27/11 16/28/11
f 10/29/12 18/16/12 17/27/12
f 11/26/13 14/30/13 12/31/13
f 2/1/1 3/32/1 4/2/1
f 3/33/2 2/6/2 13/34/2
f 5/35/2 6/36/2 9/37/2
f 7/38/2 8/39/2 6/36/2
f 9/37/2 10/4/2 2/6/2
f 11/40/2 12/5/2 10/4/2
f 13/34/2 2/6/2 12/5/2
f 6/36/2 8/39/2 9/37/2
f 9/37/2 2/6/2 5/35/2
f 14/7/3 15/41/3 13/8/3
f 15/42/4 14/43/4 4/44/4
f 16/45/4 17/12/4 14/43/4
f 18/10/4 19/46/4 21/47/4
f 20/48/4 21/47/4 19/46/4
f 22/49/4 1/11/4 18/10/4
f 4/44/4 14/43/4 1/11/4
f 17/12/4 1/11/4 14/43/4
f 21/47/4 22/49/4 18/10/4
f 3/13/5 13/50/5 15/14/5
f 18/16/6 9/51/6 8/17/6
f 6/19/7 5/24/7 22/20/7
f 6/19/8 21/21/8 20/22/8
f 8/17/9 7/23/9 20/22/9
f 5/24/10 2/52/10 1/25/10
f 11/26/11 10/29/11 17/27/11
f 10/29/12 9/51/12 18/16/12
f 11/26/13 16/28/13 14/30/13
